<?xml version="1.0" standalone="no"?>
 <!DOCTYPE svg PUBLIC "-//W3C//DTD SVG 1.1//EN" 
 "http://www.w3.org/Graphics/SVG/1.1/DTD/svg11.dtd"> 
<svg xmlns="http://www.w3.org/2000/svg" version="1.1" 
    width="29.7002cm" height="21.0007cm" viewBox="0 0 116930 82680 ">
<title>SVG Picture created as DXN501DG_BACKPLATE-Edge_Cuts.svg date 2021/07/05 21:11:46 </title>
  <desc>Picture generated by PCBNEW </desc>
<g style="fill:#000000; fill-opacity:1;stroke:#000000; stroke-opacity:1;
stroke-linecap:round; stroke-linejoin:round; "
 transform="translate(0 0) scale(1 1)">
</g>
<g style="fill:#000000; fill-opacity:0.0; 
stroke:#000000; stroke-width:-0.000393701; stroke-opacity:1; 
stroke-linecap:round; stroke-linejoin:round;">
</g>
<g style="fill:#000000; fill-opacity:0.0; 
stroke:#000000; stroke-width:19.685; stroke-opacity:1; 
stroke-linecap:round; stroke-linejoin:round;">
<circle cx="11811" cy="33464.6" r="787.402" /> 
<circle cx="41338.6" cy="11811" r="787.402" /> 
<circle cx="70866.1" cy="33464.6" r="787.402" /> 
<circle cx="41338.6" cy="55118.1" r="787.402" /> 
<path d="M74803.1 50787.4 A8267.72 8267.72 0.0 0 0 66535.4 59055.1 " />
<path d="M66535.4 7874.02 A8267.72 8267.72 0.0 0 0 74803.1 16141.7 " />
<path d="M16141.7 59055.1 A8267.72 8267.72 0.0 0 0 7874.02 50787.4 " />
<path d="M7874.02 16141.7 A8267.72 8267.72 0.0 0 0 16141.7 7874.02 " />
<path d="M16141 59055
L66535 59055
" />
<path d="M16141 7874
L66535 7874
" />
<path d="M74803 16141
L74803 50787
" />
<path d="M7874 16141
L7874 50787
" />
<g >
</g>
</g> 
</svg>
