  0
SECTION
  2
HEADER
  9
$ANGBASE
  50
0.0
  9
$ANGDIR
  70
1
  9
$MEASUREMENT
  70
1
  0
ENDSEC
  0
SECTION
  2
TABLES
  0
TABLE
  2
LTYPE
  70
4
  0
LTYPE
  5
40F
  2
CONTINUOUS
  70
0
  3
Solid line
  72
65
  73
0
  40
0.0
  0
LTYPE
  5
410
  2
DASHDOT
 70
0
  3
Dash Dot ____ _ ____ _
 72
65
 73
4
 40
2.0
 49
1.25
 49
-0.25
 49
0.25
 49
-0.25
  0
LTYPE
  5
411
  2
DASHED
 70
0
  3
Dashed __ __ __ __ __
 72
65
 73
2
 40
0.75
 49
0.5
 49
-0.25
  0
LTYPE
  5
43B
  2
DOTTED
 70
0
  3
Dotted .  .  .  .
 72
65
 73
2
 40
0.2
 49
0.0
 49
-0.2
  0
ENDTAB
  0
TABLE
  2
STYLE
  70
4
  0
STYLE
  2
KICAD
  70
0
  40
0
  41
1
  42
1
  50
0
  71
0
  3
isocp.shx
  0
STYLE
  2
KICADB
  70
0
  40
0
  41
1
  42
1
  50
0
  71
0
  3
isocp.shx
  0
STYLE
  2
KICADI
  70
0
  40
0
  41
1
  42
1
  50
15
  71
0
  3
isocp.shx
  0
STYLE
  2
KICADBI
  70
0
  40
0
  41
1
  42
1
  50
15
  71
0
  3
isocp.shx
  0
ENDTAB
  0
TABLE
  2
LAYER
  70
1
  0
LAYER
  2
BLACK
  70
0
  62
7
  6
CONTINUOUS
  0
ENDTAB
  0
ENDSEC
  0
SECTION
  2
ENTITIES
0
LINE
8
BLACK
6
CONTINUOUS
10
169.005
20
-19.9754
11
169.01
21
-19.9768
0
LINE
8
BLACK
6
CONTINUOUS
10
169.01
20
-19.9768
11
169.014
21
-19.9791
0
LINE
8
BLACK
6
CONTINUOUS
10
169.014
20
-19.9791
11
169.018
21
-19.9822
0
LINE
8
BLACK
6
CONTINUOUS
10
169.018
20
-19.9822
11
169.021
21
-19.986
0
LINE
8
BLACK
6
CONTINUOUS
10
169.021
20
-19.986
11
169.023
21
-19.9904
0
LINE
8
BLACK
6
CONTINUOUS
10
169.023
20
-19.9904
11
169.025
21
-19.9951
0
LINE
8
BLACK
6
CONTINUOUS
10
169.025
20
-19.9951
11
169.025
21
-20
0
LINE
8
BLACK
6
CONTINUOUS
10
169.025
20
-20
11
169.025
21
-20.0007
0
LINE
8
BLACK
6
CONTINUOUS
10
169.025
20
-20.0007
11
169.105
21
-21.8281
0
LINE
8
BLACK
6
CONTINUOUS
10
169.105
20
-21.8281
11
169.344
21
-23.6423
0
LINE
8
BLACK
6
CONTINUOUS
10
169.344
20
-23.6423
11
169.74
21
-25.4287
0
LINE
8
BLACK
6
CONTINUOUS
10
169.74
20
-25.4287
11
170.29
21
-27.1739
0
LINE
8
BLACK
6
CONTINUOUS
10
170.29
20
-27.1739
11
170.99
21
-28.8644
0
LINE
8
BLACK
6
CONTINUOUS
10
170.99
20
-28.8644
11
171.835
21
-30.4875
0
LINE
8
BLACK
6
CONTINUOUS
10
171.835
20
-30.4875
11
172.818
21
-32.0307
0
LINE
8
BLACK
6
CONTINUOUS
10
172.818
20
-32.0307
11
173.932
21
-33.4825
0
LINE
8
BLACK
6
CONTINUOUS
10
173.932
20
-33.4825
11
175.168
21
-34.8315
0
LINE
8
BLACK
6
CONTINUOUS
10
175.168
20
-34.8315
11
176.518
21
-36.0678
0
LINE
8
BLACK
6
CONTINUOUS
10
176.518
20
-36.0678
11
177.969
21
-37.1817
0
LINE
8
BLACK
6
CONTINUOUS
10
177.969
20
-37.1817
11
179.513
21
-38.1649
0
LINE
8
BLACK
6
CONTINUOUS
10
179.513
20
-38.1649
11
181.136
21
-39.0098
0
LINE
8
BLACK
6
CONTINUOUS
10
181.136
20
-39.0098
11
182.826
21
-39.71
0
LINE
8
BLACK
6
CONTINUOUS
10
182.826
20
-39.71
11
184.571
21
-40.2603
0
LINE
8
BLACK
6
CONTINUOUS
10
184.571
20
-40.2603
11
186.358
21
-40.6563
0
LINE
8
BLACK
6
CONTINUOUS
10
186.358
20
-40.6563
11
188.172
21
-40.8952
0
LINE
8
BLACK
6
CONTINUOUS
10
188.172
20
-40.8952
11
189.999
21
-40.9749
0
LINE
8
BLACK
6
CONTINUOUS
10
189.999
20
-40.9749
11
190
21
-40.9749
0
LINE
8
BLACK
6
CONTINUOUS
10
190
20
-40.9749
11
190.005
21
-40.9754
0
LINE
8
BLACK
6
CONTINUOUS
10
190.005
20
-40.9754
11
190.01
21
-40.9768
0
LINE
8
BLACK
6
CONTINUOUS
10
190.01
20
-40.9768
11
190.012
21
-40.9778
0
LINE
8
BLACK
6
CONTINUOUS
10
190.012
20
-40.9778
11
190.012
21
-40.9778
0
LINE
8
BLACK
6
CONTINUOUS
10
190.012
20
-40.9778
11
190.012
21
-40.9778
0
LINE
8
BLACK
6
CONTINUOUS
10
190.012
20
-40.9778
11
190.014
21
-40.9791
0
LINE
8
BLACK
6
CONTINUOUS
10
190.014
20
-40.9791
11
190.018
21
-40.9822
0
LINE
8
BLACK
6
CONTINUOUS
10
190.018
20
-40.9822
11
190.021
21
-40.986
0
LINE
8
BLACK
6
CONTINUOUS
10
190.021
20
-40.986
11
190.023
21
-40.9904
0
LINE
8
BLACK
6
CONTINUOUS
10
190.023
20
-40.9904
11
190.025
21
-40.9951
0
LINE
8
BLACK
6
CONTINUOUS
10
190.025
20
-40.9951
11
190.025
21
-40.9988
0
LINE
8
BLACK
6
CONTINUOUS
10
190.025
20
-40.9988
11
190.025
21
-129.001
0
LINE
8
BLACK
6
CONTINUOUS
10
190.025
20
-129.001
11
190.025
21
-129.005
0
LINE
8
BLACK
6
CONTINUOUS
10
190.025
20
-129.005
11
190.023
21
-129.01
0
LINE
8
BLACK
6
CONTINUOUS
10
190.023
20
-129.01
11
190.021
21
-129.014
0
LINE
8
BLACK
6
CONTINUOUS
10
190.021
20
-129.014
11
190.018
21
-129.018
0
LINE
8
BLACK
6
CONTINUOUS
10
190.018
20
-129.018
11
190.014
21
-129.021
0
LINE
8
BLACK
6
CONTINUOUS
10
190.014
20
-129.021
11
190.01
21
-129.023
0
LINE
8
BLACK
6
CONTINUOUS
10
190.01
20
-129.023
11
190.005
21
-129.025
0
LINE
8
BLACK
6
CONTINUOUS
10
190.005
20
-129.025
11
190
21
-129.025
0
LINE
8
BLACK
6
CONTINUOUS
10
190
20
-129.025
11
189.999
21
-129.025
0
LINE
8
BLACK
6
CONTINUOUS
10
189.999
20
-129.025
11
188.172
21
-129.105
0
LINE
8
BLACK
6
CONTINUOUS
10
188.172
20
-129.105
11
186.358
21
-129.344
0
LINE
8
BLACK
6
CONTINUOUS
10
186.358
20
-129.344
11
184.571
21
-129.74
0
LINE
8
BLACK
6
CONTINUOUS
10
184.571
20
-129.74
11
182.826
21
-130.29
0
LINE
8
BLACK
6
CONTINUOUS
10
182.826
20
-130.29
11
181.136
21
-130.99
0
LINE
8
BLACK
6
CONTINUOUS
10
181.136
20
-130.99
11
179.513
21
-131.835
0
LINE
8
BLACK
6
CONTINUOUS
10
179.513
20
-131.835
11
177.969
21
-132.818
0
LINE
8
BLACK
6
CONTINUOUS
10
177.969
20
-132.818
11
176.518
21
-133.932
0
LINE
8
BLACK
6
CONTINUOUS
10
176.518
20
-133.932
11
175.168
21
-135.168
0
LINE
8
BLACK
6
CONTINUOUS
10
175.168
20
-135.168
11
173.932
21
-136.518
0
LINE
8
BLACK
6
CONTINUOUS
10
173.932
20
-136.518
11
172.818
21
-137.969
0
LINE
8
BLACK
6
CONTINUOUS
10
172.818
20
-137.969
11
171.835
21
-139.513
0
LINE
8
BLACK
6
CONTINUOUS
10
171.835
20
-139.513
11
170.99
21
-141.136
0
LINE
8
BLACK
6
CONTINUOUS
10
170.99
20
-141.136
11
170.29
21
-142.826
0
LINE
8
BLACK
6
CONTINUOUS
10
170.29
20
-142.826
11
169.74
21
-144.571
0
LINE
8
BLACK
6
CONTINUOUS
10
169.74
20
-144.571
11
169.344
21
-146.358
0
LINE
8
BLACK
6
CONTINUOUS
10
169.344
20
-146.358
11
169.105
21
-148.172
0
LINE
8
BLACK
6
CONTINUOUS
10
169.105
20
-148.172
11
169.025
21
-149.999
0
LINE
8
BLACK
6
CONTINUOUS
10
169.025
20
-149.999
11
169.025
21
-150
0
LINE
8
BLACK
6
CONTINUOUS
10
169.025
20
-150
11
169.025
21
-150.005
0
LINE
8
BLACK
6
CONTINUOUS
10
169.025
20
-150.005
11
169.023
21
-150.01
0
LINE
8
BLACK
6
CONTINUOUS
10
169.023
20
-150.01
11
169.021
21
-150.014
0
LINE
8
BLACK
6
CONTINUOUS
10
169.021
20
-150.014
11
169.018
21
-150.018
0
LINE
8
BLACK
6
CONTINUOUS
10
169.018
20
-150.018
11
169.014
21
-150.021
0
LINE
8
BLACK
6
CONTINUOUS
10
169.014
20
-150.021
11
169.01
21
-150.023
0
LINE
8
BLACK
6
CONTINUOUS
10
169.01
20
-150.023
11
169.005
21
-150.025
0
LINE
8
BLACK
6
CONTINUOUS
10
169.005
20
-150.025
11
169.001
21
-150.025
0
LINE
8
BLACK
6
CONTINUOUS
10
169.001
20
-150.025
11
40.9988
21
-150.025
0
LINE
8
BLACK
6
CONTINUOUS
10
40.9988
20
-150.025
11
40.9951
21
-150.025
0
LINE
8
BLACK
6
CONTINUOUS
10
40.9951
20
-150.025
11
40.9904
21
-150.023
0
LINE
8
BLACK
6
CONTINUOUS
10
40.9904
20
-150.023
11
40.986
21
-150.021
0
LINE
8
BLACK
6
CONTINUOUS
10
40.986
20
-150.021
11
40.9822
21
-150.018
0
LINE
8
BLACK
6
CONTINUOUS
10
40.9822
20
-150.018
11
40.9791
21
-150.014
0
LINE
8
BLACK
6
CONTINUOUS
10
40.9791
20
-150.014
11
40.9768
21
-150.01
0
LINE
8
BLACK
6
CONTINUOUS
10
40.9768
20
-150.01
11
40.9754
21
-150.005
0
LINE
8
BLACK
6
CONTINUOUS
10
40.9754
20
-150.005
11
40.9749
21
-150
0
LINE
8
BLACK
6
CONTINUOUS
10
40.9749
20
-150
11
40.9749
21
-149.999
0
LINE
8
BLACK
6
CONTINUOUS
10
40.9749
20
-149.999
11
40.8952
21
-148.172
0
LINE
8
BLACK
6
CONTINUOUS
10
40.8952
20
-148.172
11
40.6563
21
-146.358
0
LINE
8
BLACK
6
CONTINUOUS
10
40.6563
20
-146.358
11
40.2603
21
-144.571
0
LINE
8
BLACK
6
CONTINUOUS
10
40.2603
20
-144.571
11
39.71
21
-142.826
0
LINE
8
BLACK
6
CONTINUOUS
10
39.71
20
-142.826
11
39.0098
21
-141.136
0
LINE
8
BLACK
6
CONTINUOUS
10
39.0098
20
-141.136
11
38.1649
21
-139.513
0
LINE
8
BLACK
6
CONTINUOUS
10
38.1649
20
-139.513
11
37.1817
21
-137.969
0
LINE
8
BLACK
6
CONTINUOUS
10
37.1817
20
-137.969
11
36.0678
21
-136.518
0
LINE
8
BLACK
6
CONTINUOUS
10
36.0678
20
-136.518
11
34.8315
21
-135.168
0
LINE
8
BLACK
6
CONTINUOUS
10
34.8315
20
-135.168
11
33.4825
21
-133.932
0
LINE
8
BLACK
6
CONTINUOUS
10
33.4825
20
-133.932
11
32.0307
21
-132.818
0
LINE
8
BLACK
6
CONTINUOUS
10
32.0307
20
-132.818
11
30.4875
21
-131.835
0
LINE
8
BLACK
6
CONTINUOUS
10
30.4875
20
-131.835
11
28.8644
21
-130.99
0
LINE
8
BLACK
6
CONTINUOUS
10
28.8644
20
-130.99
11
27.1739
21
-130.29
0
LINE
8
BLACK
6
CONTINUOUS
10
27.1739
20
-130.29
11
25.4287
21
-129.74
0
LINE
8
BLACK
6
CONTINUOUS
10
25.4287
20
-129.74
11
23.6423
21
-129.344
0
LINE
8
BLACK
6
CONTINUOUS
10
23.6423
20
-129.344
11
21.8281
21
-129.105
0
LINE
8
BLACK
6
CONTINUOUS
10
21.8281
20
-129.105
11
20.0007
21
-129.025
0
LINE
8
BLACK
6
CONTINUOUS
10
20.0007
20
-129.025
11
20
21
-129.025
0
LINE
8
BLACK
6
CONTINUOUS
10
20
20
-129.025
11
19.9951
21
-129.025
0
LINE
8
BLACK
6
CONTINUOUS
10
19.9951
20
-129.025
11
19.9904
21
-129.023
0
LINE
8
BLACK
6
CONTINUOUS
10
19.9904
20
-129.023
11
19.986
21
-129.021
0
LINE
8
BLACK
6
CONTINUOUS
10
19.986
20
-129.021
11
19.9822
21
-129.018
0
LINE
8
BLACK
6
CONTINUOUS
10
19.9822
20
-129.018
11
19.9791
21
-129.014
0
LINE
8
BLACK
6
CONTINUOUS
10
19.9791
20
-129.014
11
19.9778
21
-129.012
0
LINE
8
BLACK
6
CONTINUOUS
10
19.9778
20
-129.012
11
19.9778
21
-129.012
0
LINE
8
BLACK
6
CONTINUOUS
10
19.9778
20
-129.012
11
19.9778
21
-129.012
0
LINE
8
BLACK
6
CONTINUOUS
10
19.9778
20
-129.012
11
19.9768
21
-129.01
0
LINE
8
BLACK
6
CONTINUOUS
10
19.9768
20
-129.01
11
19.9762
21
-129.008
0
LINE
8
BLACK
6
CONTINUOUS
10
19.9762
20
-129.008
11
19.9762
21
-129.008
0
LINE
8
BLACK
6
CONTINUOUS
10
19.9762
20
-129.008
11
19.9762
21
-129.007
0
LINE
8
BLACK
6
CONTINUOUS
10
19.9762
20
-129.007
11
19.9754
21
-129.005
0
LINE
8
BLACK
6
CONTINUOUS
10
19.9754
20
-129.005
11
19.975
21
-129.001
0
LINE
8
BLACK
6
CONTINUOUS
10
19.975
20
-129.001
11
19.975
21
-40.9988
0
LINE
8
BLACK
6
CONTINUOUS
10
19.975
20
-40.9988
11
19.9754
21
-40.9951
0
LINE
8
BLACK
6
CONTINUOUS
10
19.9754
20
-40.9951
11
19.9768
21
-40.9904
0
LINE
8
BLACK
6
CONTINUOUS
10
19.9768
20
-40.9904
11
19.9778
21
-40.9885
0
LINE
8
BLACK
6
CONTINUOUS
10
19.9778
20
-40.9885
11
19.9778
21
-40.9885
0
LINE
8
BLACK
6
CONTINUOUS
10
19.9778
20
-40.9885
11
19.9778
21
-40.9884
0
LINE
8
BLACK
6
CONTINUOUS
10
19.9778
20
-40.9884
11
19.9791
21
-40.986
0
LINE
8
BLACK
6
CONTINUOUS
10
19.9791
20
-40.986
11
19.9822
21
-40.9822
0
LINE
8
BLACK
6
CONTINUOUS
10
19.9822
20
-40.9822
11
19.986
21
-40.9791
0
LINE
8
BLACK
6
CONTINUOUS
10
19.986
20
-40.9791
11
19.9904
21
-40.9768
0
LINE
8
BLACK
6
CONTINUOUS
10
19.9904
20
-40.9768
11
19.9951
21
-40.9754
0
LINE
8
BLACK
6
CONTINUOUS
10
19.9951
20
-40.9754
11
20
21
-40.9749
0
LINE
8
BLACK
6
CONTINUOUS
10
20
20
-40.9749
11
20.0007
21
-40.9749
0
LINE
8
BLACK
6
CONTINUOUS
10
20.0007
20
-40.9749
11
21.8281
21
-40.8952
0
LINE
8
BLACK
6
CONTINUOUS
10
21.8281
20
-40.8952
11
23.6423
21
-40.6563
0
LINE
8
BLACK
6
CONTINUOUS
10
23.6423
20
-40.6563
11
25.4287
21
-40.2603
0
LINE
8
BLACK
6
CONTINUOUS
10
25.4287
20
-40.2603
11
27.1739
21
-39.71
0
LINE
8
BLACK
6
CONTINUOUS
10
27.1739
20
-39.71
11
28.8644
21
-39.0098
0
LINE
8
BLACK
6
CONTINUOUS
10
28.8644
20
-39.0098
11
30.4875
21
-38.1649
0
LINE
8
BLACK
6
CONTINUOUS
10
30.4875
20
-38.1649
11
32.0307
21
-37.1817
0
LINE
8
BLACK
6
CONTINUOUS
10
32.0307
20
-37.1817
11
33.4825
21
-36.0678
0
LINE
8
BLACK
6
CONTINUOUS
10
33.4825
20
-36.0678
11
34.8315
21
-34.8315
0
LINE
8
BLACK
6
CONTINUOUS
10
34.8315
20
-34.8315
11
36.0678
21
-33.4825
0
LINE
8
BLACK
6
CONTINUOUS
10
36.0678
20
-33.4825
11
37.1817
21
-32.0307
0
LINE
8
BLACK
6
CONTINUOUS
10
37.1817
20
-32.0307
11
38.1649
21
-30.4875
0
LINE
8
BLACK
6
CONTINUOUS
10
38.1649
20
-30.4875
11
39.0098
21
-28.8644
0
LINE
8
BLACK
6
CONTINUOUS
10
39.0098
20
-28.8644
11
39.71
21
-27.1739
0
LINE
8
BLACK
6
CONTINUOUS
10
39.71
20
-27.1739
11
40.2603
21
-25.4287
0
LINE
8
BLACK
6
CONTINUOUS
10
40.2603
20
-25.4287
11
40.6563
21
-23.6423
0
LINE
8
BLACK
6
CONTINUOUS
10
40.6563
20
-23.6423
11
40.8952
21
-21.8281
0
LINE
8
BLACK
6
CONTINUOUS
10
40.8952
20
-21.8281
11
40.9749
21
-20.0007
0
LINE
8
BLACK
6
CONTINUOUS
10
40.9749
20
-20.0007
11
40.9749
21
-20
0
LINE
8
BLACK
6
CONTINUOUS
10
40.9749
20
-20
11
40.9754
21
-19.9951
0
LINE
8
BLACK
6
CONTINUOUS
10
40.9754
20
-19.9951
11
40.9768
21
-19.9904
0
LINE
8
BLACK
6
CONTINUOUS
10
40.9768
20
-19.9904
11
40.9791
21
-19.986
0
LINE
8
BLACK
6
CONTINUOUS
10
40.9791
20
-19.986
11
40.9822
21
-19.9822
0
LINE
8
BLACK
6
CONTINUOUS
10
40.9822
20
-19.9822
11
40.986
21
-19.9791
0
LINE
8
BLACK
6
CONTINUOUS
10
40.986
20
-19.9791
11
40.9904
21
-19.9768
0
LINE
8
BLACK
6
CONTINUOUS
10
40.9904
20
-19.9768
11
40.9951
21
-19.9754
0
LINE
8
BLACK
6
CONTINUOUS
10
40.9951
20
-19.9754
11
40.9988
21
-19.975
0
LINE
8
BLACK
6
CONTINUOUS
10
40.9988
20
-19.975
11
169.001
21
-19.975
0
LINE
8
BLACK
6
CONTINUOUS
10
169.001
20
-19.975
11
169.005
21
-19.9754
0
LINE
8
BLACK
6
CONTINUOUS
10
188.166
20
-40.9449
11
186.35
21
-40.7057
0
LINE
8
BLACK
6
CONTINUOUS
10
186.35
20
-40.7057
11
186.348
21
-40.7054
0
LINE
8
BLACK
6
CONTINUOUS
10
186.348
20
-40.7054
11
186.348
21
-40.7054
0
LINE
8
BLACK
6
CONTINUOUS
10
186.348
20
-40.7054
11
184.559
21
-40.3089
0
LINE
8
BLACK
6
CONTINUOUS
10
184.559
20
-40.3089
11
184.559
21
-40.3088
0
LINE
8
BLACK
6
CONTINUOUS
10
184.559
20
-40.3088
11
184.557
21
-40.3083
0
LINE
8
BLACK
6
CONTINUOUS
10
184.557
20
-40.3083
11
182.81
21
-39.7574
0
LINE
8
BLACK
6
CONTINUOUS
10
182.81
20
-39.7574
11
182.808
21
-39.7566
0
LINE
8
BLACK
6
CONTINUOUS
10
182.808
20
-39.7566
11
181.115
21
-39.0556
0
LINE
8
BLACK
6
CONTINUOUS
10
181.115
20
-39.0556
11
181.113
21
-39.0546
0
LINE
8
BLACK
6
CONTINUOUS
10
181.113
20
-39.0546
11
179.488
21
-38.2087
0
LINE
8
BLACK
6
CONTINUOUS
10
179.488
20
-38.2087
11
179.488
21
-38.2087
0
LINE
8
BLACK
6
CONTINUOUS
10
179.488
20
-38.2087
11
179.487
21
-38.208
0
LINE
8
BLACK
6
CONTINUOUS
10
179.487
20
-38.208
11
179.487
21
-38.2076
0
LINE
8
BLACK
6
CONTINUOUS
10
179.487
20
-38.2076
11
179.487
21
-38.2076
0
LINE
8
BLACK
6
CONTINUOUS
10
179.487
20
-38.2076
11
177.941
21
-37.2233
0
LINE
8
BLACK
6
CONTINUOUS
10
177.941
20
-37.2233
11
177.94
21
-37.222
0
LINE
8
BLACK
6
CONTINUOUS
10
177.94
20
-37.222
11
177.94
21
-37.222
0
LINE
8
BLACK
6
CONTINUOUS
10
177.94
20
-37.222
11
176.486
21
-36.1068
0
LINE
8
BLACK
6
CONTINUOUS
10
176.486
20
-36.1068
11
176.485
21
-36.1054
0
LINE
8
BLACK
6
CONTINUOUS
10
176.485
20
-36.1054
11
175.134
21
-34.8677
0
LINE
8
BLACK
6
CONTINUOUS
10
175.134
20
-34.8677
11
175.132
21
-34.8661
0
LINE
8
BLACK
6
CONTINUOUS
10
175.132
20
-34.8661
11
173.895
21
-33.5154
0
LINE
8
BLACK
6
CONTINUOUS
10
173.895
20
-33.5154
11
173.893
21
-33.5138
0
LINE
8
BLACK
6
CONTINUOUS
10
173.893
20
-33.5138
11
172.778
21
-32.0603
0
LINE
8
BLACK
6
CONTINUOUS
10
172.778
20
-32.0603
11
172.777
21
-32.0585
0
LINE
8
BLACK
6
CONTINUOUS
10
172.777
20
-32.0585
11
171.792
21
-30.5134
0
LINE
8
BLACK
6
CONTINUOUS
10
171.792
20
-30.5134
11
171.792
21
-30.5134
0
LINE
8
BLACK
6
CONTINUOUS
10
171.792
20
-30.5134
11
171.791
21
-30.5115
0
LINE
8
BLACK
6
CONTINUOUS
10
171.791
20
-30.5115
11
170.945
21
-28.8865
0
LINE
8
BLACK
6
CONTINUOUS
10
170.945
20
-28.8865
11
170.944
21
-28.8845
0
LINE
8
BLACK
6
CONTINUOUS
10
170.944
20
-28.8845
11
170.243
21
-27.192
0
LINE
8
BLACK
6
CONTINUOUS
10
170.243
20
-27.192
11
170.243
21
-27.1899
0
LINE
8
BLACK
6
CONTINUOUS
10
170.243
20
-27.1899
11
170.243
21
-27.1899
0
LINE
8
BLACK
6
CONTINUOUS
10
170.243
20
-27.1899
11
169.692
21
-25.4427
0
LINE
8
BLACK
6
CONTINUOUS
10
169.692
20
-25.4427
11
169.691
21
-25.4406
0
LINE
8
BLACK
6
CONTINUOUS
10
169.691
20
-25.4406
11
169.691
21
-25.4406
0
LINE
8
BLACK
6
CONTINUOUS
10
169.691
20
-25.4406
11
169.295
21
-23.652
0
LINE
8
BLACK
6
CONTINUOUS
10
169.295
20
-23.652
11
169.295
21
-23.652
0
LINE
8
BLACK
6
CONTINUOUS
10
169.295
20
-23.652
11
169.294
21
-23.6499
0
LINE
8
BLACK
6
CONTINUOUS
10
169.294
20
-23.6499
11
169.055
21
-21.8335
0
LINE
8
BLACK
6
CONTINUOUS
10
169.055
20
-21.8335
11
169.055
21
-21.8314
0
LINE
8
BLACK
6
CONTINUOUS
10
169.055
20
-21.8314
11
168.976
21
-20.025
0
LINE
8
BLACK
6
CONTINUOUS
10
168.976
20
-20.025
11
41.0239
21
-20.025
0
LINE
8
BLACK
6
CONTINUOUS
10
41.0239
20
-20.025
11
40.9451
21
-21.8314
0
LINE
8
BLACK
6
CONTINUOUS
10
40.9451
20
-21.8314
11
40.9451
21
-21.8314
0
LINE
8
BLACK
6
CONTINUOUS
10
40.9451
20
-21.8314
11
40.9449
21
-21.8335
0
LINE
8
BLACK
6
CONTINUOUS
10
40.9449
20
-21.8335
11
40.7057
21
-23.6499
0
LINE
8
BLACK
6
CONTINUOUS
10
40.7057
20
-23.6499
11
40.7054
21
-23.652
0
LINE
8
BLACK
6
CONTINUOUS
10
40.7054
20
-23.652
11
40.7054
21
-23.652
0
LINE
8
BLACK
6
CONTINUOUS
10
40.7054
20
-23.652
11
40.3089
21
-25.4406
0
LINE
8
BLACK
6
CONTINUOUS
10
40.3089
20
-25.4406
11
40.3088
21
-25.4406
0
LINE
8
BLACK
6
CONTINUOUS
10
40.3088
20
-25.4406
11
40.3083
21
-25.4427
0
LINE
8
BLACK
6
CONTINUOUS
10
40.3083
20
-25.4427
11
39.7574
21
-27.1899
0
LINE
8
BLACK
6
CONTINUOUS
10
39.7574
20
-27.1899
11
39.7566
21
-27.192
0
LINE
8
BLACK
6
CONTINUOUS
10
39.7566
20
-27.192
11
39.0556
21
-28.8845
0
LINE
8
BLACK
6
CONTINUOUS
10
39.0556
20
-28.8845
11
39.0546
21
-28.8865
0
LINE
8
BLACK
6
CONTINUOUS
10
39.0546
20
-28.8865
11
38.2087
21
-30.5115
0
LINE
8
BLACK
6
CONTINUOUS
10
38.2087
20
-30.5115
11
38.2087
21
-30.5115
0
LINE
8
BLACK
6
CONTINUOUS
10
38.2087
20
-30.5115
11
38.208
21
-30.5127
0
LINE
8
BLACK
6
CONTINUOUS
10
38.208
20
-30.5127
11
38.2076
21
-30.5134
0
LINE
8
BLACK
6
CONTINUOUS
10
38.2076
20
-30.5134
11
38.2076
21
-30.5134
0
LINE
8
BLACK
6
CONTINUOUS
10
38.2076
20
-30.5134
11
37.2233
21
-32.0585
0
LINE
8
BLACK
6
CONTINUOUS
10
37.2233
20
-32.0585
11
37.222
21
-32.0603
0
LINE
8
BLACK
6
CONTINUOUS
10
37.222
20
-32.0603
11
36.1068
21
-33.5138
0
LINE
8
BLACK
6
CONTINUOUS
10
36.1068
20
-33.5138
11
36.1054
21
-33.5154
0
LINE
8
BLACK
6
CONTINUOUS
10
36.1054
20
-33.5154
11
34.8677
21
-34.8661
0
LINE
8
BLACK
6
CONTINUOUS
10
34.8677
20
-34.8661
11
34.8661
21
-34.8677
0
LINE
8
BLACK
6
CONTINUOUS
10
34.8661
20
-34.8677
11
33.5154
21
-36.1054
0
LINE
8
BLACK
6
CONTINUOUS
10
33.5154
20
-36.1054
11
33.5138
21
-36.1068
0
LINE
8
BLACK
6
CONTINUOUS
10
33.5138
20
-36.1068
11
32.0603
21
-37.222
0
LINE
8
BLACK
6
CONTINUOUS
10
32.0603
20
-37.222
11
32.0603
21
-37.222
0
LINE
8
BLACK
6
CONTINUOUS
10
32.0603
20
-37.222
11
32.0585
21
-37.2233
0
LINE
8
BLACK
6
CONTINUOUS
10
32.0585
20
-37.2233
11
30.5134
21
-38.2076
0
LINE
8
BLACK
6
CONTINUOUS
10
30.5134
20
-38.2076
11
30.5134
21
-38.2076
0
LINE
8
BLACK
6
CONTINUOUS
10
30.5134
20
-38.2076
11
30.5115
21
-38.2087
0
LINE
8
BLACK
6
CONTINUOUS
10
30.5115
20
-38.2087
11
28.8865
21
-39.0546
0
LINE
8
BLACK
6
CONTINUOUS
10
28.8865
20
-39.0546
11
28.8845
21
-39.0556
0
LINE
8
BLACK
6
CONTINUOUS
10
28.8845
20
-39.0556
11
27.192
21
-39.7566
0
LINE
8
BLACK
6
CONTINUOUS
10
27.192
20
-39.7566
11
27.1899
21
-39.7574
0
LINE
8
BLACK
6
CONTINUOUS
10
27.1899
20
-39.7574
11
25.4427
21
-40.3083
0
LINE
8
BLACK
6
CONTINUOUS
10
25.4427
20
-40.3083
11
25.4406
21
-40.3088
0
LINE
8
BLACK
6
CONTINUOUS
10
25.4406
20
-40.3088
11
25.4406
21
-40.3089
0
LINE
8
BLACK
6
CONTINUOUS
10
25.4406
20
-40.3089
11
23.652
21
-40.7054
0
LINE
8
BLACK
6
CONTINUOUS
10
23.652
20
-40.7054
11
23.652
21
-40.7054
0
LINE
8
BLACK
6
CONTINUOUS
10
23.652
20
-40.7054
11
23.6499
21
-40.7057
0
LINE
8
BLACK
6
CONTINUOUS
10
23.6499
20
-40.7057
11
21.8335
21
-40.9449
0
LINE
8
BLACK
6
CONTINUOUS
10
21.8335
20
-40.9449
11
21.8335
21
-40.9449
0
LINE
8
BLACK
6
CONTINUOUS
10
21.8335
20
-40.9449
11
21.8314
21
-40.9451
0
LINE
8
BLACK
6
CONTINUOUS
10
21.8314
20
-40.9451
11
20.025
21
-41.0239
0
LINE
8
BLACK
6
CONTINUOUS
10
20.025
20
-41.0239
11
20.025
21
-128.976
0
LINE
8
BLACK
6
CONTINUOUS
10
20.025
20
-128.976
11
21.8314
21
-129.055
0
LINE
8
BLACK
6
CONTINUOUS
10
21.8314
20
-129.055
11
21.8335
21
-129.055
0
LINE
8
BLACK
6
CONTINUOUS
10
21.8335
20
-129.055
11
21.8335
21
-129.055
0
LINE
8
BLACK
6
CONTINUOUS
10
21.8335
20
-129.055
11
23.6499
21
-129.294
0
LINE
8
BLACK
6
CONTINUOUS
10
23.6499
20
-129.294
11
23.652
21
-129.295
0
LINE
8
BLACK
6
CONTINUOUS
10
23.652
20
-129.295
11
23.652
21
-129.295
0
LINE
8
BLACK
6
CONTINUOUS
10
23.652
20
-129.295
11
25.4406
21
-129.691
0
LINE
8
BLACK
6
CONTINUOUS
10
25.4406
20
-129.691
11
25.4406
21
-129.691
0
LINE
8
BLACK
6
CONTINUOUS
10
25.4406
20
-129.691
11
25.4427
21
-129.692
0
LINE
8
BLACK
6
CONTINUOUS
10
25.4427
20
-129.692
11
27.1899
21
-130.243
0
LINE
8
BLACK
6
CONTINUOUS
10
27.1899
20
-130.243
11
27.192
21
-130.243
0
LINE
8
BLACK
6
CONTINUOUS
10
27.192
20
-130.243
11
28.8845
21
-130.944
0
LINE
8
BLACK
6
CONTINUOUS
10
28.8845
20
-130.944
11
28.8865
21
-130.945
0
LINE
8
BLACK
6
CONTINUOUS
10
28.8865
20
-130.945
11
30.5115
21
-131.791
0
LINE
8
BLACK
6
CONTINUOUS
10
30.5115
20
-131.791
11
30.5134
21
-131.792
0
LINE
8
BLACK
6
CONTINUOUS
10
30.5134
20
-131.792
11
30.5134
21
-131.792
0
LINE
8
BLACK
6
CONTINUOUS
10
30.5134
20
-131.792
11
32.0585
21
-132.777
0
LINE
8
BLACK
6
CONTINUOUS
10
32.0585
20
-132.777
11
32.0603
21
-132.778
0
LINE
8
BLACK
6
CONTINUOUS
10
32.0603
20
-132.778
11
33.5138
21
-133.893
0
LINE
8
BLACK
6
CONTINUOUS
10
33.5138
20
-133.893
11
33.5154
21
-133.895
0
LINE
8
BLACK
6
CONTINUOUS
10
33.5154
20
-133.895
11
34.8661
21
-135.132
0
LINE
8
BLACK
6
CONTINUOUS
10
34.8661
20
-135.132
11
34.8677
21
-135.134
0
LINE
8
BLACK
6
CONTINUOUS
10
34.8677
20
-135.134
11
36.1054
21
-136.485
0
LINE
8
BLACK
6
CONTINUOUS
10
36.1054
20
-136.485
11
36.1068
21
-136.486
0
LINE
8
BLACK
6
CONTINUOUS
10
36.1068
20
-136.486
11
37.222
21
-137.94
0
LINE
8
BLACK
6
CONTINUOUS
10
37.222
20
-137.94
11
37.2233
21
-137.941
0
LINE
8
BLACK
6
CONTINUOUS
10
37.2233
20
-137.941
11
38.2076
21
-139.487
0
LINE
8
BLACK
6
CONTINUOUS
10
38.2076
20
-139.487
11
38.2076
21
-139.487
0
LINE
8
BLACK
6
CONTINUOUS
10
38.2076
20
-139.487
11
38.208
21
-139.487
0
LINE
8
BLACK
6
CONTINUOUS
10
38.208
20
-139.487
11
38.2087
21
-139.488
0
LINE
8
BLACK
6
CONTINUOUS
10
38.2087
20
-139.488
11
38.2087
21
-139.488
0
LINE
8
BLACK
6
CONTINUOUS
10
38.2087
20
-139.488
11
39.0546
21
-141.113
0
LINE
8
BLACK
6
CONTINUOUS
10
39.0546
20
-141.113
11
39.0556
21
-141.115
0
LINE
8
BLACK
6
CONTINUOUS
10
39.0556
20
-141.115
11
39.7566
21
-142.808
0
LINE
8
BLACK
6
CONTINUOUS
10
39.7566
20
-142.808
11
39.7574
21
-142.81
0
LINE
8
BLACK
6
CONTINUOUS
10
39.7574
20
-142.81
11
40.3083
21
-144.557
0
LINE
8
BLACK
6
CONTINUOUS
10
40.3083
20
-144.557
11
40.3088
21
-144.559
0
LINE
8
BLACK
6
CONTINUOUS
10
40.3088
20
-144.559
11
40.3089
21
-144.559
0
LINE
8
BLACK
6
CONTINUOUS
10
40.3089
20
-144.559
11
40.7054
21
-146.348
0
LINE
8
BLACK
6
CONTINUOUS
10
40.7054
20
-146.348
11
40.7054
21
-146.348
0
LINE
8
BLACK
6
CONTINUOUS
10
40.7054
20
-146.348
11
40.7057
21
-146.35
0
LINE
8
BLACK
6
CONTINUOUS
10
40.7057
20
-146.35
11
40.9449
21
-148.166
0
LINE
8
BLACK
6
CONTINUOUS
10
40.9449
20
-148.166
11
40.9449
21
-148.166
0
LINE
8
BLACK
6
CONTINUOUS
10
40.9449
20
-148.166
11
40.9451
21
-148.169
0
LINE
8
BLACK
6
CONTINUOUS
10
40.9451
20
-148.169
11
41.0239
21
-149.975
0
LINE
8
BLACK
6
CONTINUOUS
10
41.0239
20
-149.975
11
168.976
21
-149.975
0
LINE
8
BLACK
6
CONTINUOUS
10
168.976
20
-149.975
11
169.055
21
-148.169
0
LINE
8
BLACK
6
CONTINUOUS
10
169.055
20
-148.169
11
169.055
21
-148.166
0
LINE
8
BLACK
6
CONTINUOUS
10
169.055
20
-148.166
11
169.055
21
-148.166
0
LINE
8
BLACK
6
CONTINUOUS
10
169.055
20
-148.166
11
169.294
21
-146.35
0
LINE
8
BLACK
6
CONTINUOUS
10
169.294
20
-146.35
11
169.295
21
-146.348
0
LINE
8
BLACK
6
CONTINUOUS
10
169.295
20
-146.348
11
169.295
21
-146.348
0
LINE
8
BLACK
6
CONTINUOUS
10
169.295
20
-146.348
11
169.691
21
-144.559
0
LINE
8
BLACK
6
CONTINUOUS
10
169.691
20
-144.559
11
169.691
21
-144.559
0
LINE
8
BLACK
6
CONTINUOUS
10
169.691
20
-144.559
11
169.692
21
-144.557
0
LINE
8
BLACK
6
CONTINUOUS
10
169.692
20
-144.557
11
170.243
21
-142.81
0
LINE
8
BLACK
6
CONTINUOUS
10
170.243
20
-142.81
11
170.243
21
-142.808
0
LINE
8
BLACK
6
CONTINUOUS
10
170.243
20
-142.808
11
170.944
21
-141.115
0
LINE
8
BLACK
6
CONTINUOUS
10
170.944
20
-141.115
11
170.945
21
-141.113
0
LINE
8
BLACK
6
CONTINUOUS
10
170.945
20
-141.113
11
171.791
21
-139.488
0
LINE
8
BLACK
6
CONTINUOUS
10
171.791
20
-139.488
11
171.792
21
-139.487
0
LINE
8
BLACK
6
CONTINUOUS
10
171.792
20
-139.487
11
171.792
21
-139.487
0
LINE
8
BLACK
6
CONTINUOUS
10
171.792
20
-139.487
11
172.777
21
-137.941
0
LINE
8
BLACK
6
CONTINUOUS
10
172.777
20
-137.941
11
172.778
21
-137.94
0
LINE
8
BLACK
6
CONTINUOUS
10
172.778
20
-137.94
11
173.893
21
-136.486
0
LINE
8
BLACK
6
CONTINUOUS
10
173.893
20
-136.486
11
173.895
21
-136.485
0
LINE
8
BLACK
6
CONTINUOUS
10
173.895
20
-136.485
11
175.132
21
-135.134
0
LINE
8
BLACK
6
CONTINUOUS
10
175.132
20
-135.134
11
175.134
21
-135.132
0
LINE
8
BLACK
6
CONTINUOUS
10
175.134
20
-135.132
11
176.485
21
-133.895
0
LINE
8
BLACK
6
CONTINUOUS
10
176.485
20
-133.895
11
176.486
21
-133.893
0
LINE
8
BLACK
6
CONTINUOUS
10
176.486
20
-133.893
11
177.94
21
-132.778
0
LINE
8
BLACK
6
CONTINUOUS
10
177.94
20
-132.778
11
177.941
21
-132.777
0
LINE
8
BLACK
6
CONTINUOUS
10
177.941
20
-132.777
11
179.487
21
-131.792
0
LINE
8
BLACK
6
CONTINUOUS
10
179.487
20
-131.792
11
179.487
21
-131.792
0
LINE
8
BLACK
6
CONTINUOUS
10
179.487
20
-131.792
11
179.487
21
-131.792
0
LINE
8
BLACK
6
CONTINUOUS
10
179.487
20
-131.792
11
179.488
21
-131.791
0
LINE
8
BLACK
6
CONTINUOUS
10
179.488
20
-131.791
11
179.488
21
-131.791
0
LINE
8
BLACK
6
CONTINUOUS
10
179.488
20
-131.791
11
181.113
21
-130.945
0
LINE
8
BLACK
6
CONTINUOUS
10
181.113
20
-130.945
11
181.115
21
-130.944
0
LINE
8
BLACK
6
CONTINUOUS
10
181.115
20
-130.944
11
182.808
21
-130.243
0
LINE
8
BLACK
6
CONTINUOUS
10
182.808
20
-130.243
11
182.808
21
-130.243
0
LINE
8
BLACK
6
CONTINUOUS
10
182.808
20
-130.243
11
182.81
21
-130.243
0
LINE
8
BLACK
6
CONTINUOUS
10
182.81
20
-130.243
11
184.557
21
-129.692
0
LINE
8
BLACK
6
CONTINUOUS
10
184.557
20
-129.692
11
184.559
21
-129.691
0
LINE
8
BLACK
6
CONTINUOUS
10
184.559
20
-129.691
11
184.559
21
-129.691
0
LINE
8
BLACK
6
CONTINUOUS
10
184.559
20
-129.691
11
186.348
21
-129.295
0
LINE
8
BLACK
6
CONTINUOUS
10
186.348
20
-129.295
11
186.348
21
-129.295
0
LINE
8
BLACK
6
CONTINUOUS
10
186.348
20
-129.295
11
186.35
21
-129.294
0
LINE
8
BLACK
6
CONTINUOUS
10
186.35
20
-129.294
11
188.166
21
-129.055
0
LINE
8
BLACK
6
CONTINUOUS
10
188.166
20
-129.055
11
188.169
21
-129.055
0
LINE
8
BLACK
6
CONTINUOUS
10
188.169
20
-129.055
11
188.169
21
-129.055
0
LINE
8
BLACK
6
CONTINUOUS
10
188.169
20
-129.055
11
189.975
21
-128.976
0
LINE
8
BLACK
6
CONTINUOUS
10
189.975
20
-128.976
11
189.975
21
-41.0239
0
LINE
8
BLACK
6
CONTINUOUS
10
189.975
20
-41.0239
11
188.169
21
-40.9451
0
LINE
8
BLACK
6
CONTINUOUS
10
188.169
20
-40.9451
11
188.169
21
-40.9451
0
LINE
8
BLACK
6
CONTINUOUS
10
188.169
20
-40.9451
11
188.166
21
-40.9449
  0
ENDSEC
  0
EOF
